<?xml version="1.0" standalone="no"?>
<!DOCTYPE svg PUBLIC "-//W3C//DTD SVG 20010904//EN"
 "http://www.w3.org/TR/2001/REC-SVG-20010904/DTD/svg10.dtd">
<svg version="1.0" xmlns="http://www.w3.org/2000/svg"
 width="225.000000pt" height="225.000000pt" viewBox="0 0 225.000000 225.000000"
 preserveAspectRatio="xMidYMid meet">

<g transform="translate(0.000000,225.000000) scale(0.100000,-0.100000)"
fill="#000000" stroke="none">
<path d="M0 1125 l0 -1125 1125 0 1125 0 0 44 c0 26 -5 46 -12 49 -10 3 -10 9
-1 25 10 17 13 253 13 1077 l0 1055 -1125 0 -1125 0 0 -1125z m725 1075 c3 -5
-1 -10 -9 -10 -9 0 -16 5 -16 10 0 6 4 10 9 10 6 0 13 -4 16 -10z m70 -20 c3
-5 1 -10 -4 -10 -6 0 -11 5 -11 10 0 6 2 10 4 10 3 0 8 -4 11 -10z m-620 -31
c0 -7 -8 -15 -17 -17 -18 -3 -25 18 -11 32 10 10 28 1 28 -15z m1440 11 c3 -5
1 -10 -4 -10 -6 0 -11 5 -11 10 0 6 2 10 4 10 3 0 8 -4 11 -10z m-1295 -41 c0
-6 -4 -7 -10 -4 -5 3 -10 11 -10 16 0 6 5 7 10 4 6 -3 10 -11 10 -16z m1058
-4 c181 -17 404 -119 551 -251 50 -45 132 -143 166 -199 18 -29 18 -29 -21 6
-102 95 -213 159 -344 201 -101 31 -329 33 -430 4 -242 -72 -423 -227 -525
-450 -18 -39 -36 -87 -40 -106 -11 -52 -17 -57 -31 -25 -13 29 -13 29 -13 5
-2 -105 106 -207 271 -255 77 -22 105 -13 118 36 13 46 30 52 30 10 l0 -29 37
19 c45 23 56 9 22 -27 l-22 -24 31 0 c41 0 41 -17 1 -34 -29 -12 -30 -14 -13
-24 20 -11 19 -13 -32 -27 -6 -2 -66 0 -135 5 -107 6 -133 11 -189 37 -74 34
-150 100 -150 130 0 25 -23 45 -47 42 -10 -2 -28 2 -40 9 -17 9 -24 9 -35 -1
-7 -6 -20 -12 -28 -12 -10 0 -16 -12 -18 -37 -2 -25 -8 -38 -18 -38 -8 0 -14
-10 -14 -26 0 -35 152 -180 242 -231 37 -21 68 -43 68 -48 0 -29 103 -178 165
-241 238 -242 595 -309 909 -170 31 14 56 24 56 22 0 -11 -136 -95 -215 -132
-340 -161 -710 -123 -1013 106 -177 133 -298 318 -359 549 -22 81 -26 118 -26
231 0 164 28 284 98 425 102 206 247 351 450 450 147 72 346 120 450 109 17
-2 59 -6 93 -9z m792 -35 c0 -5 -2 -10 -4 -10 -3 0 -8 5 -11 10 -3 6 -1 10 4
10 6 0 11 -4 11 -10z m-29 -73 c-1 -12 -15 -9 -19 4 -3 6 1 10 8 8 6 -3 11 -8
11 -12z m-155 -68 c10 -17 -13 -36 -27 -22 -12 12 -4 33 11 33 5 0 12 -5 16
-11z m-1736 -79 c0 -5 -4 -10 -10 -10 -5 0 -10 5 -10 10 0 6 5 10 10 10 6 0
10 -4 10 -10z m1555 -140 c3 -5 1 -10 -4 -10 -6 0 -11 5 -11 10 0 6 2 10 4 10
3 0 8 -4 11 -10z m-220 -10 c3 -5 1 -10 -4 -10 -6 0 -11 5 -11 10 0 6 2 10 4
10 3 0 8 -4 11 -10z m215 -60 c0 -5 -4 -10 -10 -10 -5 0 -10 5 -10 10 0 6 5
10 10 10 6 0 10 -4 10 -10z m-250 -10 c0 -5 -4 -10 -10 -10 -5 0 -10 5 -10 10
0 6 5 10 10 10 6 0 10 -4 10 -10z m-571 -144 c14 -34 42 -42 63 -17 20 26 28
26 28 3 0 -34 -33 -53 -78 -46 -23 4 -39 10 -36 15 3 5 -2 16 -10 25 -13 12
-13 18 -3 29 17 20 26 18 36 -9z m211 -51 c0 -8 10 -20 22 -26 18 -10 24 -8
40 11 13 15 22 20 29 13 13 -13 1 -41 -25 -55 -29 -16 -75 -16 -69 0 3 6 -1
12 -9 12 -14 0 -23 44 -12 61 7 13 24 1 24 -16z m901 -58 c-1 -12 -15 -9 -19
4 -3 6 1 10 8 8 6 -3 11 -8 11 -12z m-1031 -15 c0 -28 11 -34 32 -15 23 20 33
12 18 -16 -12 -23 -40 -27 -58 -9 -15 15 -16 58 -2 58 6 0 10 -8 10 -18z
m-864 -163 c10 -17 -13 -36 -27 -22 -12 12 -4 33 11 33 5 0 12 -5 16 -11z
m1584 -99 c0 -5 -4 -10 -10 -10 -5 0 -10 5 -10 10 0 6 5 10 10 10 6 0 10 -4
10 -10z m-110 -80 c0 -5 -4 -10 -10 -10 -5 0 -10 5 -10 10 0 6 5 10 10 10 6 0
10 -4 10 -10z m526 -91 c10 -17 -13 -36 -27 -22 -12 12 -4 33 11 33 5 0 12 -5
16 -11z m-761 -29 c3 -5 1 -10 -4 -10 -6 0 -11 5 -11 10 0 6 2 10 4 10 3 0 8
-4 11 -10z m-35 -50 c0 -5 -2 -10 -4 -10 -3 0 -8 5 -11 10 -3 6 -1 10 4 10 6
0 11 -4 11 -10z m-1220 -60 c0 -5 -4 -10 -10 -10 -5 0 -10 5 -10 10 0 6 5 10
10 10 6 0 10 -4 10 -10z m1770 -70 c0 -5 -5 -10 -11 -10 -5 0 -7 5 -4 10 3 6
8 10 11 10 2 0 4 -4 4 -10z m-30 -69 c0 -6 -4 -13 -10 -16 -5 -3 -10 1 -10 9
0 9 5 16 10 16 6 0 10 -4 10 -9z m-1660 -195 c0 -3 -4 -8 -10 -11 -5 -3 -10
-1 -10 4 0 6 5 11 10 11 6 0 10 -2 10 -4z m-60 -96 c0 -5 -4 -10 -10 -10 -5 0
-10 5 -10 10 0 6 5 10 10 10 6 0 10 -4 10 -10z m210 -110 c0 -5 -4 -10 -10
-10 -5 0 -10 5 -10 10 0 6 5 10 10 10 6 0 10 -4 10 -10z m188 -72 c-3 -7 -11
-13 -18 -13 -7 0 -15 6 -17 13 -3 7 4 12 17 12 13 0 20 -5 18 -12z m-200 -39
c-2 -6 -8 -10 -13 -10 -5 0 -11 4 -13 10 -2 6 4 11 13 11 9 0 15 -5 13 -11z
m147 -38 c7 -12 -12 -24 -25 -16 -11 7 -4 25 10 25 5 0 11 -4 15 -9z m1218 -8
c9 -9 -13 -34 -24 -27 -14 8 -11 34 4 34 8 0 17 -3 20 -7z m-973 -33 c0 -5 -4
-10 -10 -10 -5 0 -10 5 -10 10 0 6 5 10 10 10 6 0 10 -4 10 -10z"/>
<path d="M790 1615 c-13 -33 -36 -42 -59 -21 -22 20 -31 20 -31 1 0 -21 44
-47 66 -39 30 11 54 35 54 55 0 29 -19 32 -30 4z"/>
<path d="M575 1558 c-14 -32 -45 -35 -65 -8 -20 26 -32 15 -19 -17 11 -30 53
-40 84 -19 14 9 25 23 25 31 0 8 0 18 1 22 2 18 -17 11 -26 -9z"/>
<path d="M710 1493 c0 -29 -20 -40 -35 -20 -13 19 -25 22 -25 8 0 -15 30 -41
46 -41 21 0 41 47 26 62 -9 9 -12 7 -12 -9z"/>
</g>
</svg>
